<svg width="152" height="48" viewBox="0 0 152 48" fill="none" xmlns="http://www.w3.org/2000/svg">
<path d="M9.84 37.848C8.51733 39.6827 7.83467 41.176 7.792 42.328C7.74933 43.4373 8.21867 44.2693 9.2 44.824C10.1813 45.336 11.504 45.6347 13.168 45.72L12.848 47C11.056 46.9147 9.49867 46.872 8.176 46.872C6.896 46.8293 5.68 46.808 4.528 46.808C3.54667 46.808 2.736 46.8293 2.096 46.872C1.456 46.872 0.794666 46.9147 0.112 47L0.368 45.72C1.136 45.5067 1.86133 45.1653 2.544 44.696C3.184 44.2267 3.93067 43.5227 4.784 42.584C5.59467 41.6453 6.53333 40.4293 7.6 38.936L34.288 1.368C34.8427 1.41066 35.3973 1.432 35.952 1.432C36.5493 1.432 37.0827 1.41066 37.552 1.368L40.112 41.624C40.24 43.16 40.624 44.2267 41.264 44.824C41.9467 45.3787 42.608 45.6773 43.248 45.72L42.992 47C41.9253 46.9147 40.496 46.872 38.704 46.872C36.9547 46.8293 35.2907 46.808 33.712 46.808C31.792 46.808 29.9787 46.8293 28.272 46.872C26.5653 46.872 25.1787 46.9147 24.112 47L24.368 45.72C26.416 45.6347 27.8667 45.272 28.72 44.632C29.616 43.9493 30 42.52 29.872 40.344L28.336 10.904L30.512 8.6L9.84 37.848ZM15.792 28.568H34.48L33.968 29.848H14.64L15.792 28.568ZM83.9085 33.496C83.5672 34.1787 83.0552 34.8827 82.3725 35.608C81.6898 36.3333 80.8152 36.952 79.7485 37.464C78.7245 37.9333 77.4658 38.168 75.9725 38.168C74.7352 38.168 73.5192 37.9333 72.3245 37.464C71.1725 36.9947 70.2125 36.2267 69.4445 35.16C68.6765 34.0933 68.2925 32.6853 68.2925 30.936C68.2925 28.2907 69.2525 26.0507 71.1725 24.216C73.0925 22.3387 75.8658 20.8027 79.4925 19.608C80.6445 19.224 81.9032 18.8187 83.2685 18.392C84.6765 17.9227 86.1272 17.4533 87.6205 16.984C89.1565 16.472 90.6498 15.96 92.1005 15.448C93.5938 14.936 95.0018 14.4453 96.3245 13.976C97.5618 13.5067 98.7565 12.9947 99.9085 12.44C101.103 11.8853 102.085 11.2027 102.853 10.392C103.663 9.53867 104.069 8.45067 104.069 7.128C104.069 5.50667 103.45 4.22667 102.213 3.288C101.018 2.30666 99.5245 1.816 97.7325 1.816C96.8792 1.816 96.2605 1.944 95.8765 2.2C96.8152 2.584 97.5192 3.11733 97.9885 3.8C98.4578 4.44 98.6925 5.16533 98.6925 5.976C98.6925 6.872 98.3938 7.68267 97.7965 8.408C97.2418 9.09067 96.5378 9.624 95.6845 10.008C94.8312 10.392 93.9138 10.584 92.9325 10.584C91.6098 10.584 90.5005 10.2213 89.6045 9.496C88.7512 8.728 88.3245 7.74666 88.3245 6.552C88.3245 5.35733 88.6872 4.35467 89.4125 3.544C90.1805 2.73333 91.1405 2.11467 92.2925 1.688C93.1458 1.304 94.0418 1.06933 94.9805 0.983997C95.9192 0.855996 96.7512 0.791996 97.4765 0.791996C99.1405 0.791996 100.613 1.06933 101.893 1.624C103.215 2.17866 104.261 3.07466 105.029 4.312C105.797 5.54933 106.181 7.21333 106.181 9.304C106.181 11.5227 105.711 13.4427 104.773 15.064C103.877 16.6427 102.511 18.008 100.677 19.16C98.8845 20.312 96.6658 21.3787 94.0205 22.36C92.8258 22.7867 91.5458 23.256 90.1805 23.768C88.8152 24.2373 87.3858 24.7067 85.8925 25.176C84.4418 25.6453 83.0125 26.1147 81.6045 26.584C80.1965 27.0533 78.8952 27.5013 77.7005 27.928C76.5912 28.312 75.5672 28.76 74.6285 29.272C73.7325 29.7413 73.0072 30.3173 72.4525 31C71.9405 31.6827 71.6845 32.4933 71.6845 33.432C71.6845 34.6693 72.1538 35.5653 73.0925 36.12C74.0312 36.6747 75.0765 36.952 76.2285 36.952C77.5085 36.952 78.5965 36.7173 79.4925 36.248C80.4312 35.7787 81.1778 35.2453 81.7325 34.648C82.2872 34.008 82.6925 33.4533 82.9485 32.984L83.9085 33.496ZM76.8685 10.52C77.8498 10.52 78.6818 10.2427 79.3645 9.688C80.0472 9.09067 80.3885 8.32267 80.3885 7.384C80.3885 6.36 79.9618 5.54933 79.1085 4.952C78.2552 4.312 77.1458 3.992 75.7805 3.992C74.2445 3.992 72.8152 4.376 71.4925 5.144C70.1698 5.912 69.1032 6.97866 68.2925 8.344C67.4818 9.70933 67.0765 11.3093 67.0765 13.144C67.0765 13.656 67.1405 14.1893 67.2685 14.744C67.3965 15.2987 67.5672 15.8533 67.7805 16.408C68.5485 16.28 69.3165 16.1947 70.0845 16.152C70.8525 16.0667 71.4285 16.024 71.8125 16.024C73.3485 16.024 74.1165 16.472 74.1165 17.368C74.1165 17.8373 73.9032 18.1787 73.4765 18.392C73.0498 18.6053 72.6018 18.712 72.1325 18.712C71.3218 18.712 70.4898 18.5413 69.6365 18.2C68.8258 17.816 68.1858 17.5173 67.7165 17.304C66.2232 17.8587 64.8792 18.7973 63.6845 20.12C62.4898 21.4427 61.5512 23 60.8685 24.792C60.1858 26.584 59.8445 28.504 59.8445 30.552C59.8445 33.1547 60.4205 35.3307 61.5725 37.08C62.7672 38.8293 64.4525 40.152 66.6285 41.048C68.8045 41.944 71.3645 42.392 74.3085 42.392C76.5272 42.392 78.6605 42.1573 80.7085 41.688C82.7565 41.176 84.5698 40.4293 86.1485 39.448C87.7698 38.4667 89.0498 37.2293 89.9885 35.736C90.9698 34.2427 91.4605 32.4933 91.4605 30.488C91.4605 28.8667 91.0765 27.288 90.3085 25.752C89.5405 24.216 88.1752 22.9787 86.2125 22.04L86.9805 21.4C88.8578 22.3813 90.2872 23.704 91.2685 25.368C92.2925 27.032 92.8045 28.9307 92.8045 31.064C92.8045 33.112 92.3138 35.1387 91.3325 37.144C90.3938 39.1067 88.9645 40.8987 87.0445 42.52C85.1245 44.1413 82.7138 45.4427 79.8125 46.424C76.9112 47.4053 73.5192 47.896 69.6365 47.896C65.7965 47.896 62.3618 47.3627 59.3325 46.296C56.3458 45.2293 53.9778 43.672 52.2285 41.624C50.5218 39.5333 49.6685 36.952 49.6685 33.88C49.6685 31.1067 50.3725 28.568 51.7805 26.264C53.2312 23.96 55.2365 21.9973 57.7965 20.376C60.3992 18.712 63.4285 17.5173 66.8845 16.792C64.9645 16.1093 63.5352 15.1707 62.5965 13.976C61.7005 12.7813 61.2525 11.5013 61.2525 10.136C61.2525 8.344 61.8712 6.85066 63.1085 5.656C64.3885 4.46133 65.9672 3.56533 67.8445 2.968C69.7645 2.37067 71.7272 2.072 73.7325 2.072C76.4205 2.072 78.4258 2.56267 79.7485 3.544C81.1138 4.48267 81.7965 5.69867 81.7965 7.192C81.7965 8.728 81.2418 9.85867 80.1325 10.584C79.0658 11.3093 77.9778 11.672 76.8685 11.672V10.52ZM151.447 16.984C151.447 19.7573 151.041 22.5733 150.231 25.432C149.42 28.2907 148.161 31 146.455 33.56C144.791 36.12 142.7 38.424 140.183 40.472C137.708 42.4773 134.764 44.0773 131.351 45.272C127.98 46.424 124.161 47 119.895 47C119.212 47 118.38 46.9787 117.399 46.936C116.46 46.8933 115.393 46.872 114.199 46.872C113.004 46.8293 111.681 46.808 110.231 46.808C109.249 46.808 108.14 46.8293 106.903 46.872C105.708 46.872 104.535 46.8933 103.383 46.936C102.273 46.936 101.356 46.9573 100.63 47L100.822 45.72C102.188 45.6347 103.255 45.464 104.023 45.208C104.833 44.952 105.473 44.44 105.943 43.672C106.412 42.904 106.839 41.752 107.223 40.216L115.607 8.472C115.948 7.23466 116.097 6.232 116.055 5.464C116.055 4.65333 115.735 4.056 115.095 3.672C114.497 3.288 113.431 3.05333 111.895 2.968L112.087 1.688C112.855 1.73067 113.836 1.77333 115.031 1.816C116.225 1.85866 117.484 1.88 118.807 1.88C120.172 1.88 121.431 1.88 122.583 1.88C123.351 1.83733 124.332 1.816 125.527 1.816C126.721 1.77333 127.916 1.752 129.111 1.752C130.305 1.70933 131.308 1.688 132.119 1.688C138.305 1.688 143.063 2.968 146.391 5.528C149.761 8.088 151.447 11.9067 151.447 16.984ZM119.895 45.848C122.625 45.848 125.1 45.2507 127.319 44.056C129.58 42.8613 131.564 41.24 133.271 39.192C134.977 37.1013 136.407 34.7333 137.559 32.088C138.711 29.4427 139.585 26.6693 140.183 23.768C140.78 20.824 141.079 17.88 141.079 14.936C141.079 11.0107 140.268 8.024 138.647 5.976C137.025 3.88533 134.38 2.84 130.711 2.84C129.644 2.84 128.833 2.98933 128.279 3.288C127.724 3.544 127.276 4.056 126.935 4.824C126.593 5.592 126.209 6.76533 125.783 8.344L117.399 40.344C117.057 41.7093 116.844 42.7973 116.759 43.608C116.673 44.4187 116.844 44.9947 117.271 45.336C117.74 45.6773 118.615 45.848 119.895 45.848Z" fill="white"/>
</svg>
